<svg width="69" height="21" viewBox="0 0 69 21" fill="none" xmlns="http://www.w3.org/2000/svg">
<g clip-path="url(#clip0_2_3829)">
<g clip-path="url(#clip1_2_3829)">
<mask id="mask0_2_3829" style="mask-type:luminance" maskUnits="userSpaceOnUse" x="0" y="0" width="69" height="21">
<path d="M68.3735 0H0.00683594V20.3405H68.3735V0Z" fill="white"/>
</mask>
<g mask="url(#mask0_2_3829)">
<path d="M14.7472 3.47709C14.7472 4.61607 13.8239 5.53939 12.6849 5.53939C11.5459 5.53939 10.6226 4.61607 10.6226 3.47709C10.6226 2.33811 11.5459 1.41479 12.6849 1.41479C13.8239 1.41479 14.7472 2.33811 14.7472 3.47709Z" fill="black" fill-opacity="0.32"/>
<path d="M11.8051 16.1986C11.3121 16.1986 10.9126 15.7989 10.9126 15.3059V7.43133C10.9126 6.93827 11.3121 6.53857 11.8051 6.53857H13.5191C14.0121 6.53857 14.4117 6.93827 14.4117 7.43133V15.3059C14.4117 15.7989 14.0121 16.1986 13.5191 16.1986H11.8051Z" fill="black"/>
<path fill-rule="evenodd" clip-rule="evenodd" d="M2.65238 15.5129C2.65238 15.8916 2.95926 16.1985 3.33781 16.1985H5.42154C5.91445 16.1985 6.31405 15.7988 6.31405 15.3058V11.1494C6.90024 11.2398 7.49578 11.2012 8.07963 11.0313L8.54767 10.8951C8.81683 10.8167 9.00197 10.5699 9.00197 10.2895V7.79161C9.00197 7.38087 8.61563 7.07971 8.21739 7.18014L7.55444 7.3473C7.14335 7.46701 6.72161 7.4666 6.31405 7.34935V4.74636C6.31405 4.51449 6.3381 4.32355 6.3862 4.17352C6.44633 4.00985 6.50178 3.90985 6.61 3.82802C6.73026 3.74619 6.896 3.68447 7.08838 3.68447C7.35611 3.68447 7.61207 3.74526 7.80596 3.80526C7.8409 3.81608 7.87583 3.82669 7.91063 3.83712C8.37915 3.97738 8.86243 3.68634 8.98624 3.21306L9.50768 1.22026C9.60202 0.859403 9.42112 0.477806 9.0678 0.358744C8.54432 0.182381 8.09529 0.106634 7.56675 0.0478703C7.13624 0 6.7169 0 6.22386 0C5.46187 0 4.87103 0.197766 4.32989 0.593295C3.80078 0.975182 3.38591 1.48664 3.08528 2.12768C2.79667 2.76871 2.65238 3.47793 2.65238 4.25535V5.68703C2.08034 5.60525 1.49994 5.64598 0.930681 5.81169L0.462597 5.94794C0.193418 6.02629 0.00830078 6.27302 0.00830078 6.55345V9.1033C0.00830078 9.53373 0.429854 9.83769 0.838085 9.70157L1.45584 9.49565C1.85219 9.38032 2.25846 9.37656 2.65238 9.4815V15.5129Z" fill="black"/>
<path d="M21.3755 20.3405C20.5086 20.3405 19.6478 20.2201 18.7929 19.9792C18.26 19.8268 17.7872 19.6456 17.3746 19.4354C16.9808 19.235 16.864 18.7482 17.064 18.3539L17.5377 17.42C17.7652 16.9715 18.3289 16.8233 18.7929 17.0167C19.0819 17.1371 19.3829 17.2274 19.6959 17.2877C20.021 17.3478 20.3641 17.378 20.7253 17.378C21.2912 17.378 21.7487 17.2996 22.0979 17.1431C22.4471 16.9986 22.6998 16.7638 22.8563 16.4386C23.0249 16.1134 23.1092 15.698 23.1092 15.1922V14.1441C23.1092 13.9307 23.2922 13.7633 23.5045 13.7822C23.7248 13.8019 23.8786 14.0142 23.7863 14.2152C23.6714 14.4658 23.5058 14.6951 23.2898 14.9031C22.9647 15.2163 22.5614 15.4632 22.0798 15.6438C21.5982 15.8244 21.0866 15.9147 20.5447 15.9147C19.6899 15.9147 18.9315 15.722 18.2693 15.3367C17.6191 14.9513 17.1014 14.4155 16.7161 13.729C16.3429 13.0305 16.1562 12.2116 16.1562 11.2723C16.1562 10.2968 16.3429 9.44178 16.7161 8.70718C17.0894 7.96055 17.595 7.37649 18.2331 6.95501C18.8833 6.53349 19.6237 6.32275 20.4544 6.32275C20.8156 6.32275 21.1588 6.35888 21.4839 6.43114C21.8089 6.50339 22.11 6.60575 22.3868 6.73822C22.6637 6.85868 22.9106 7.00916 23.1273 7.18985C23.344 7.37047 23.5186 7.56915 23.6509 7.78594C23.736 7.91344 23.8044 8.04724 23.856 8.18725C23.9167 8.35174 23.8036 8.52033 23.6324 8.55793C23.4183 8.60497 23.2202 8.42995 23.2407 8.21159L23.3226 7.33137C23.3654 6.87235 23.7505 6.52145 24.2113 6.52145H25.9009C26.3938 6.52145 26.7934 6.92117 26.7934 7.41423V15.2463C26.7934 16.0532 26.667 16.7698 26.4141 17.396C26.1733 18.0342 25.8182 18.5701 25.3487 19.0037C24.8792 19.4493 24.3071 19.7804 23.633 19.9972C22.9708 20.2261 22.2183 20.3405 21.3755 20.3405ZM21.4658 13.2955C21.839 13.2955 22.152 13.2172 22.4049 13.0606C22.6697 12.9041 22.8685 12.6813 23.0009 12.3923C23.1333 12.0912 23.1995 11.7299 23.1995 11.3085C23.1995 10.8869 23.1333 10.5256 23.0009 10.2246C22.8685 9.92349 22.6697 9.69467 22.4049 9.53818C22.152 9.38162 21.839 9.30334 21.4658 9.30334C21.0926 9.30334 20.7795 9.38162 20.5267 9.53818C20.2738 9.69467 20.0812 9.92349 19.9488 10.2246C19.8164 10.5256 19.7501 10.8869 19.7501 11.3085C19.7501 11.7299 19.8164 12.0912 19.9488 12.3923C20.0812 12.6813 20.2738 12.9041 20.5267 13.0606C20.7795 13.2172 21.0926 13.2955 21.4658 13.2955Z" fill="black"/>
<path d="M32.0393 16.3845C31.3048 16.3845 30.6848 16.2339 30.1792 15.9329C29.6735 15.6318 29.2882 15.1922 29.0233 14.6141C28.7584 14.024 28.626 13.3135 28.626 12.4826V7.41429C28.626 6.92116 29.0256 6.52148 29.5186 6.52148H31.3995C31.8925 6.52148 32.2922 6.92116 32.2922 7.41429V12.1755C32.2922 12.4405 32.3343 12.6633 32.4186 12.8438C32.5148 13.0245 32.6473 13.163 32.8159 13.2594C32.9844 13.3557 33.1891 13.4039 33.4299 13.4039C33.6105 13.4039 33.773 13.3798 33.9175 13.3316C34.074 13.2714 34.2064 13.1872 34.3148 13.0787C34.4232 12.9703 34.5075 12.85 34.5677 12.7175C34.6278 12.573 34.658 12.4224 34.658 12.2658V7.41429C34.658 6.92116 35.0575 6.52148 35.5504 6.52148H37.4315C37.9244 6.52148 38.3241 6.92116 38.3241 7.41429V15.293C38.3241 15.786 37.9244 16.1857 37.4315 16.1857H35.7638C35.309 16.1857 34.927 15.8437 34.8768 15.3916L34.7725 14.4534C34.7584 14.3264 34.8361 14.2071 34.9579 14.1686C35.1617 14.1042 35.3492 14.292 35.2561 14.4844C35.1237 14.7586 34.9483 15.0126 34.7302 15.2464C34.4051 15.5957 34.0078 15.8726 33.5383 16.0774C33.0687 16.2821 32.569 16.3845 32.0393 16.3845Z" fill="black"/>
<path d="M41.2172 16.1857C40.7242 16.1857 40.3247 15.786 40.3247 15.2929V7.41421C40.3247 6.92115 40.7242 6.52146 41.2172 6.52146H42.8855C43.3551 6.52146 43.7445 6.88547 43.7761 7.35419L43.8902 9.04729C43.9095 9.33525 43.5949 9.52421 43.35 9.37176C43.2161 9.28842 43.1521 9.12605 43.2036 8.97694C43.3594 8.52497 43.5796 8.11593 43.8644 7.74983C44.2014 7.30421 44.6049 6.955 45.0744 6.70209C45.556 6.4492 46.0676 6.32275 46.6095 6.32275C46.8262 6.32275 47.0309 6.34081 47.2235 6.37694C47.4911 6.4104 47.6556 6.70914 47.6556 6.97892V9.29977C47.6556 9.958 46.829 10.4881 46.1941 10.3149C45.9412 10.2426 45.6643 10.2065 45.3633 10.2065C45.1465 10.2065 44.9479 10.2426 44.7673 10.3149C44.5989 10.3751 44.4543 10.4714 44.3339 10.6039C44.2256 10.7364 44.1413 10.8929 44.0811 11.0736C44.0209 11.2542 43.9908 11.465 43.9908 11.7059V15.2929C43.9908 15.786 43.5912 16.1857 43.0983 16.1857H41.2172Z" fill="black"/>
<path d="M53.9917 16.3664C52.872 16.3664 51.9088 16.1496 51.1021 15.7161C50.2954 15.2825 49.6754 14.6924 49.242 13.9457C48.8086 13.1871 48.5918 12.32 48.5918 11.3445C48.5918 10.6219 48.7123 9.95364 48.953 9.33943C49.1938 8.7253 49.5309 8.19539 49.9643 7.74984C50.4099 7.29219 50.9275 6.94298 51.5175 6.70209C52.1195 6.4492 52.7756 6.32275 53.486 6.32275C54.1963 6.32275 54.8404 6.4492 55.4183 6.70209C56.0083 6.94298 56.514 7.29219 56.9354 7.74984C57.3568 8.19539 57.6757 8.7253 57.8925 9.33943C58.1213 9.95364 58.2236 10.6219 58.1996 11.3445C58.1895 11.7664 57.8447 12.1032 57.4228 12.1032H51.2894C50.8934 12.1032 50.5489 11.8321 50.4557 11.447C50.3249 10.9071 50.734 10.3872 51.2894 10.3872H55.0338C55.1243 10.3872 55.1709 10.4956 55.1086 10.5612C55.0444 10.6288 54.9308 10.5834 54.9308 10.4902V10.4232C54.9308 10.1945 54.8706 9.99575 54.7501 9.82716C54.6418 9.64654 54.4852 9.50803 54.2806 9.4117C54.076 9.31537 53.8352 9.26717 53.5582 9.26717C53.209 9.26717 52.9141 9.33943 52.6733 9.48396C52.4325 9.62849 52.2459 9.83318 52.1134 10.0981C51.993 10.3631 51.9328 10.6822 51.9328 11.0555C51.9328 11.489 52.0231 11.8684 52.2037 12.1935C52.3964 12.5188 52.6733 12.7716 53.0345 12.9523C53.4077 13.1328 53.8652 13.2231 54.4071 13.2231C54.7682 13.2231 55.0752 13.181 55.328 13.0968C55.3457 13.0904 55.3634 13.0836 55.3812 13.0768C55.8402 12.8983 56.3898 12.9706 56.6749 13.3723L57.3456 14.3173C57.6214 14.7059 57.5475 15.2503 57.1402 15.4978C56.9321 15.6242 56.7254 15.7332 56.52 15.8244C56.0986 16.0171 55.6772 16.1556 55.2558 16.2399C54.8465 16.3243 54.425 16.3664 53.9917 16.3664Z" fill="black"/>
<path d="M63.4033 16.3664C62.3558 16.3664 61.4408 16.2097 60.6582 15.8967C60.234 15.7177 59.8608 15.515 59.5389 15.2885C59.1284 14.9999 59.1664 14.4175 59.5475 14.0912L60.3965 13.3642C60.7333 13.0759 61.2261 13.0896 61.611 13.3097C61.8281 13.4339 62.0582 13.5375 62.3016 13.6207C62.8073 13.7772 63.2287 13.8554 63.5658 13.8554C63.6862 13.8554 63.7886 13.8494 63.8729 13.8374C63.9692 13.8133 64.0413 13.7832 64.0895 13.747C64.122 13.7211 64.1491 13.6951 64.1712 13.6691C64.2057 13.6283 64.236 13.5823 64.2533 13.5316C64.2645 13.4988 64.2702 13.4623 64.2702 13.4219C64.2702 13.2413 64.1738 13.1088 63.9812 13.0245C63.8729 12.9763 63.6923 12.9161 63.4394 12.8438C63.1986 12.7716 62.8796 12.6873 62.4822 12.5909C62.0127 12.4705 61.5792 12.3201 61.1819 12.1394C60.7966 11.9587 60.4656 11.748 60.1887 11.5071C59.8997 11.2421 59.6709 10.9411 59.5024 10.6039C59.3458 10.2667 59.2676 9.88738 59.2676 9.4659C59.2676 8.97215 59.382 8.53256 59.6108 8.14724C59.8395 7.76186 60.1526 7.43671 60.5498 7.17179C60.9471 6.89476 61.3927 6.68403 61.8862 6.53951C62.3799 6.39501 62.8856 6.32275 63.4033 6.32275C63.9932 6.32275 64.541 6.38296 65.0467 6.50339C65.5645 6.61177 66.046 6.77434 66.4915 6.99109C66.6439 7.05925 66.7916 7.13213 66.9345 7.20966C67.3901 7.45653 67.4435 8.06014 67.0979 8.44621L66.4487 9.17117C66.1295 9.5277 65.5854 9.56606 65.1695 9.32951C65.1646 9.32677 65.1598 9.32411 65.1551 9.32137C64.8902 9.16481 64.6072 9.0384 64.3063 8.942C64.0173 8.83364 63.7464 8.77943 63.4936 8.77943C63.3612 8.77943 63.2467 8.79153 63.1504 8.81559C63.0662 8.82763 62.994 8.85771 62.9338 8.90591C62.8736 8.942 62.8254 8.9902 62.7893 9.05043C62.7651 9.09856 62.7532 9.1588 62.7532 9.23106C62.7532 9.32739 62.7833 9.4177 62.8435 9.502C62.9036 9.58629 63 9.65856 63.1324 9.71879C63.2407 9.76698 63.4213 9.83316 63.6742 9.91746C63.9391 10.0018 64.3243 10.1162 64.83 10.2607C65.3718 10.4172 65.8474 10.5979 66.2568 10.8026C66.6782 11.0073 67.0153 11.2481 67.268 11.5252C67.4366 11.7178 67.5691 11.9347 67.6655 12.1755C67.7617 12.4164 67.8099 12.6752 67.8099 12.9523C67.8099 13.6145 67.6173 14.2047 67.2319 14.7225C66.8587 15.2283 66.341 15.6317 65.6788 15.9328C65.0166 16.2219 64.2581 16.3664 63.4033 16.3664Z" fill="black"/>
</g>
</g>
</g>
<defs>
<clipPath id="clip0_2_3829">
<rect width="68.38" height="20.51" fill="white"/>
</clipPath>
<clipPath id="clip1_2_3829">
<rect width="68.3667" height="20.51" fill="white" transform="translate(0.00683594)"/>
</clipPath>
</defs>
</svg>
