<svg width="28" height="28" viewBox="0 0 28 28" fill="none" xmlns="http://www.w3.org/2000/svg">
<g clip-path="url(#clip0_2_3658)">
<rect width="27.01" height="27.01" rx="13.505" fill="#F1F4FF"/>
<g clip-path="url(#clip1_2_3658)">
<path d="M27.01 0H0V27.01H27.01V0Z" fill="#F0F0F0"/>
<path d="M13.5051 17.7251C15.8361 17.7251 17.7256 15.8355 17.7256 13.5045C17.7256 11.1736 15.8361 9.28394 13.5051 9.28394C11.1742 9.28394 9.28467 11.1736 9.28467 13.5045C9.28467 15.8355 11.1742 17.7251 13.5051 17.7251Z" fill="white"/>
<path d="M9.85012 15.6157L6.19562 9.28589C5.45462 10.5689 5.06445 12.0245 5.06445 13.5062C5.06445 14.988 5.45445 16.4435 6.19537 17.7265C6.93629 19.0096 8.00196 20.0751 9.28519 20.8157C10.5685 21.5562 12.0241 21.9459 13.5058 21.9455L17.1603 15.6157V15.6147C16.7901 16.2567 16.2575 16.7898 15.6159 17.1604C14.9743 17.5311 14.2465 17.7263 13.5055 17.7264C12.7646 17.7265 12.0367 17.5315 11.395 17.1611C10.7533 16.7906 10.2205 16.2575 9.85012 15.6157Z" fill="#229342"/>
<path d="M17.1598 15.6156L13.5054 21.9454C14.9871 21.9456 16.4427 21.5556 17.7258 20.8149C19.009 20.0742 20.0745 19.0085 20.8152 17.7253C21.5559 16.4421 21.9458 14.9865 21.9455 13.5048C21.9452 12.0231 21.5549 10.5676 20.8137 9.28467H13.5048L13.5039 9.2853C14.2449 9.28492 14.9728 9.47969 15.6147 9.84994C16.2565 10.2203 16.7894 10.753 17.16 11.3946C17.5306 12.0363 17.7257 12.7641 17.7257 13.5051C17.7256 14.2461 17.5304 14.9739 17.1598 15.6156Z" fill="#FBC116"/>
<path d="M13.5053 16.8469C15.3506 16.8469 16.8465 15.351 16.8465 13.5056C16.8465 11.6601 15.3506 10.1643 13.5053 10.1643C11.66 10.1643 10.1641 11.6602 10.1641 13.5056C10.1641 15.3509 11.66 16.8469 13.5053 16.8469Z" fill="#1A73E8"/>
<path d="M13.5053 9.28502H20.8142C20.0736 8.00179 19.0082 6.93612 17.725 6.1952C16.4419 5.45433 14.9864 5.06433 13.5047 5.06445C12.0231 5.06454 10.5676 5.45471 9.2846 6.19579C8.00159 6.93688 6.93625 8.00263 6.1958 9.28599L9.8503 15.6158L9.85131 15.6163C9.48051 14.9748 9.28515 14.247 9.28494 13.506C9.28469 12.765 9.47958 12.0371 9.84996 11.3953C10.2203 10.7536 10.7532 10.2206 11.3949 9.8502C12.0365 9.47983 12.7643 9.28485 13.5053 9.28502Z" fill="#E33B2E"/>
</g>
</g>
<defs>
<clipPath id="clip0_2_3658">
<rect width="27.01" height="27.01" rx="13.505" fill="white"/>
</clipPath>
<clipPath id="clip1_2_3658">
<rect width="27.01" height="27.01" fill="white"/>
</clipPath>
</defs>
</svg>
